<?xml version="1.0" encoding="utf-8"?>
<!-- Generator: Adobe Illustrator 19.1.0, SVG Export Plug-In . SVG Version: 6.00 Build 0)  -->
<svg version="1.1" id="Layer_1" xmlns="http://www.w3.org/2000/svg" xmlns:xlink="http://www.w3.org/1999/xlink" x="0px" y="0px"
	 viewBox="0 0 124.5 50" style="enable-background:new 0 0 124.5 50;" xml:space="preserve">
<style type="text/css">
	.st0{fill:#FFFFFF;}
</style>
<path class="st0" d="M4.8,47.1c-0.2,0-0.4,0-0.6-0.1c-0.6-0.2-1-0.8-1-1.5V15.1c0-0.4,0.2-0.8,0.5-1.1L14.2,3.4
	C14.7,2.9,15.4,2.8,16,3c0.6,0.2,1,0.8,1,1.5v30.4c0,0.4-0.2,0.8-0.5,1.1L5.9,46.6C5.6,46.9,5.2,47.1,4.8,47.1z M6.4,15.8v25.9
	l7.4-7.4V8.4L6.4,15.8z"/>
<path class="st0" d="M119.4,36.5H15.4c-0.9,0-1.6-0.7-1.6-1.6V4.5c0-0.9,0.7-1.6,1.6-1.6h104.1c0.9,0,1.6,0.7,1.6,1.6v30.4
	C121,35.8,120.3,36.5,119.4,36.5z M17,33.3h100.9V6.1H17V33.3z"/>
<path class="st0" d="M108.9,47.1H4.8c-0.6,0-1.2-0.4-1.5-1s-0.1-1.3,0.3-1.7l10.6-10.6c0.3-0.3,0.7-0.5,1.1-0.5h104.1
	c0.6,0,1.2,0.4,1.5,1s0.1,1.3-0.3,1.7L110,46.6C109.7,46.9,109.3,47.1,108.9,47.1z M8.6,43.9h99.6l7.4-7.4H16L8.6,43.9z"/>
<g>
	<path class="st0" d="M31.5,25h-3.2v-6.3h-1.1V16h1.1v-1.1c0-1.2,0-2.2,0.9-3.1c0.8-0.9,1.9-1.4,3.1-1.4c0.5,0,0.9,0.1,1.4,0.3v2.7
		c-0.4-0.2-0.7-0.3-1.1-0.3c-0.8,0-1.1,0.5-1.1,1.5V16h2.2v2.6h-2.2V25z M38,12.6c0,1-0.8,1.8-1.8,1.8c-1,0-1.8-0.8-1.8-1.8
		c0-1,0.8-1.8,1.8-1.8C37.2,10.8,38,11.6,38,12.6z M37.8,25h-3.2v-9h3.2V25z"/>
	<path class="st0" d="M43.1,17.2L43.1,17.2c0.8-1.1,1.7-1.5,2.9-1.5c2.4,0,3.4,1.5,3.4,3.7V25h-3.2v-4.4c0-0.9,0.1-2.4-1.4-2.4
		c-1.3,0-1.7,1-1.7,2.1V25h-3.2v-9h3.2V17.2z"/>
	<path class="st0" d="M58.2,24L58.2,24c-0.6,0.9-1.7,1.3-2.7,1.3c-2.7,0-4.5-2.2-4.5-4.8s1.8-4.8,4.5-4.8c1,0,2.1,0.4,2.8,1.2v-6.4
		h3.2V25h-3.2V24z M54.3,20.5c0,1.1,0.8,2,2,2c1.3,0,2-0.9,2-2c0-1.1-0.8-2-2-2C55,18.5,54.3,19.4,54.3,20.5z"/>
</g>
<path class="st0" d="M67.7,12.6c0,1-0.8,1.8-1.8,1.8s-1.8-0.8-1.8-1.8c0-1,0.8-1.8,1.8-1.8S67.7,11.6,67.7,12.6z M67.5,25h-3.2v-9
	h3.2V25z"/>
<path class="st0" d="M76,19c-0.5-0.3-1-0.6-1.6-0.6c-1.2,0-2.2,0.9-2.2,2.2c0,1.3,0.9,2.2,2.2,2.2c0.6,0,1.2-0.2,1.6-0.6v2.7
	c-0.7,0.3-1.5,0.5-2.2,0.5c-2.7,0-4.9-2-4.9-4.7c0-2.9,2.2-4.9,5-4.9c0.7,0,1.5,0.2,2.1,0.5V19z"/>
<path class="st0" d="M88.2,20.5c0,3-2.5,4.8-5.4,4.8c-2.9,0-5.4-1.7-5.4-4.8s2.5-4.8,5.4-4.8C85.6,15.7,88.2,17.5,88.2,20.5z
	 M80.7,20.5c0,1.1,0.8,2,2,2c1.3,0,2-0.9,2-2c0-1.1-0.8-2-2-2C81.5,18.5,80.7,19.4,80.7,20.5z"/>
<path class="st0" d="M92.8,17.2L92.8,17.2c0.8-1.1,1.7-1.5,2.9-1.5c2.4,0,3.4,1.5,3.4,3.7V25h-3.2v-4.4c0-0.9,0.1-2.4-1.4-2.4
	c-1.3,0-1.7,1-1.7,2.1V25h-3.2v-9h3.2V17.2z"/>
<path class="st0" d="M107.1,18.3c-0.5-0.3-1.2-0.4-1.7-0.4c-0.4,0-1,0.2-1,0.6c0,0.6,1,0.7,1.4,0.8c1.5,0.3,2.6,1,2.6,2.7
	c0,2.4-2.2,3.3-4.2,3.3c-1.3,0-2.5-0.4-3.6-1l1.2-2.2c0.6,0.5,1.7,0.9,2.5,0.9c0.4,0,1-0.2,1-0.7c0-0.7-1-0.7-2-1
	c-1-0.3-2-0.8-2-2.4c0-2.2,2-3.2,4-3.2c1,0,2,0.2,3,0.6L107.1,18.3z"/>
</svg>
